<svg width="560" height="143" viewBox="0 0 560 143" fill="none" xmlns="http://www.w3.org/2000/svg">
<path d="M1.47656 13.5234H5.46094L14.2734 27.7266L22.9453 13.5234H26.9297L16.0078 31.5234V48H12.6094V31.5234L1.47656 13.5234ZM44.1328 21.8438C48.0547 21.8438 51.3047 23.2656 53.8828 26.1094C56.2266 28.7031 57.3984 31.7734 57.3984 35.3203C57.3984 38.8828 56.1562 42 53.6719 44.6719C51.2031 47.3281 48.0234 48.6562 44.1328 48.6562C40.2266 48.6562 37.0312 47.3281 34.5469 44.6719C32.0781 42 30.8438 38.8828 30.8438 35.3203C30.8438 31.7891 32.0156 28.7266 34.3594 26.1328C36.9375 23.2734 40.1953 21.8438 44.1328 21.8438ZM44.1328 25.0547C41.4141 25.0547 39.0781 26.0625 37.125 28.0781C35.1719 30.0938 34.1953 32.5312 34.1953 35.3906C34.1953 37.2344 34.6406 38.9531 35.5312 40.5469C36.4219 42.1406 37.625 43.375 39.1406 44.25C40.6562 45.1094 42.3203 45.5391 44.1328 45.5391C45.9453 45.5391 47.6094 45.1094 49.125 44.25C50.6406 43.375 51.8438 42.1406 52.7344 40.5469C53.625 38.9531 54.0703 37.2344 54.0703 35.3906C54.0703 32.5312 53.0859 30.0938 51.1172 28.0781C49.1641 26.0625 46.8359 25.0547 44.1328 25.0547ZM63.0938 22.5H66.3984V34.4062C66.3984 37.3125 66.5547 39.3125 66.8672 40.4062C67.3359 41.9688 68.2266 43.2031 69.5391 44.1094C70.8672 45.0156 72.4453 45.4688 74.2734 45.4688C76.1016 45.4688 77.6484 45.0312 78.9141 44.1562C80.1953 43.2656 81.0781 42.1016 81.5625 40.6641C81.8906 39.6797 82.0547 37.5938 82.0547 34.4062V22.5H85.4062V35.0156C85.4062 38.5312 84.9922 41.1797 84.1641 42.9609C83.3516 44.7422 82.1172 46.1406 80.4609 47.1562C78.8203 48.1562 76.7578 48.6562 74.2734 48.6562C71.7891 48.6562 69.7109 48.1562 68.0391 47.1562C66.3828 46.1406 65.1406 44.7344 64.3125 42.9375C63.5 41.125 63.0938 38.4062 63.0938 34.7812V22.5ZM91.4766 22.5H94.8281V26.2266C95.8281 24.7578 96.8828 23.6641 97.9922 22.9453C99.1016 22.2109 100.258 21.8438 101.461 21.8438C102.367 21.8438 103.336 22.1328 104.367 22.7109L102.656 25.4766C101.969 25.1797 101.391 25.0312 100.922 25.0312C99.8281 25.0312 98.7734 25.4844 97.7578 26.3906C96.7422 27.2812 95.9688 28.6719 95.4375 30.5625C95.0312 32.0156 94.8281 34.9531 94.8281 39.375V48H91.4766V22.5ZM120.984 13.5234H127.852C131.789 13.5234 134.445 13.6953 135.82 14.0391C137.789 14.5234 139.398 15.5234 140.648 17.0391C141.898 18.5391 142.523 20.4297 142.523 22.7109C142.523 25.0078 141.914 26.9062 140.695 28.4062C139.477 29.8906 137.797 30.8906 135.656 31.4062C134.094 31.7812 131.172 31.9688 126.891 31.9688H124.43V48H120.984V13.5234ZM124.43 16.875V28.5938L130.266 28.6641C132.625 28.6641 134.352 28.4531 135.445 28.0312C136.539 27.5938 137.398 26.8984 138.023 25.9453C138.648 24.9766 138.961 23.8984 138.961 22.7109C138.961 21.5547 138.648 20.5 138.023 19.5469C137.398 18.5781 136.57 17.8906 135.539 17.4844C134.523 17.0781 132.852 16.875 130.523 16.875H124.43ZM148.383 12.6562H151.664V48H148.383V12.6562ZM183.891 22.5V48H180.656V43.6172C179.281 45.2891 177.734 46.5469 176.016 47.3906C174.312 48.2344 172.445 48.6562 170.414 48.6562C166.805 48.6562 163.719 47.3516 161.156 44.7422C158.609 42.1172 157.336 38.9297 157.336 35.1797C157.336 31.5078 158.625 28.3672 161.203 25.7578C163.781 23.1484 166.883 21.8438 170.508 21.8438C172.602 21.8438 174.492 22.2891 176.18 23.1797C177.883 24.0703 179.375 25.4062 180.656 27.1875V22.5H183.891ZM170.766 25.0078C168.938 25.0078 167.25 25.4609 165.703 26.3672C164.156 27.2578 162.922 28.5156 162 30.1406C161.094 31.7656 160.641 33.4844 160.641 35.2969C160.641 37.0938 161.102 38.8125 162.023 40.4531C162.945 42.0938 164.18 43.375 165.727 44.2969C167.289 45.2031 168.961 45.6562 170.742 45.6562C172.539 45.6562 174.242 45.2031 175.852 44.2969C177.461 43.3906 178.695 42.1641 179.555 40.6172C180.43 39.0703 180.867 37.3281 180.867 35.3906C180.867 32.4375 179.891 29.9688 177.938 27.9844C176 26 173.609 25.0078 170.766 25.0078ZM191.297 22.5H194.578V27.0703C195.891 25.3203 197.344 24.0156 198.938 23.1562C200.531 22.2812 202.266 21.8438 204.141 21.8438C206.047 21.8438 207.734 22.3281 209.203 23.2969C210.688 24.2656 211.781 25.5703 212.484 27.2109C213.188 28.8516 213.539 31.4062 213.539 34.875V48H210.281V35.8359C210.281 32.8984 210.156 30.9375 209.906 29.9531C209.516 28.2656 208.781 27 207.703 26.1562C206.625 25.2969 205.219 24.8672 203.484 24.8672C201.5 24.8672 199.719 25.5234 198.141 26.8359C196.578 28.1484 195.547 29.7734 195.047 31.7109C194.734 32.9766 194.578 35.2891 194.578 38.6484V48H191.297V22.5ZM233.414 25.2891L231.305 27.4688C229.555 25.7656 227.844 24.9141 226.172 24.9141C225.109 24.9141 224.195 25.2656 223.43 25.9688C222.68 26.6719 222.305 27.4922 222.305 28.4297C222.305 29.2578 222.617 30.0469 223.242 30.7969C223.867 31.5625 225.18 32.4609 227.18 33.4922C229.617 34.7578 231.273 35.9766 232.148 37.1484C233.008 38.3359 233.438 39.6719 233.438 41.1562C233.438 43.25 232.703 45.0234 231.234 46.4766C229.766 47.9297 227.93 48.6562 225.727 48.6562C224.258 48.6562 222.852 48.3359 221.508 47.6953C220.18 47.0547 219.078 46.1719 218.203 45.0469L220.266 42.7031C221.938 44.5938 223.711 45.5391 225.586 45.5391C226.898 45.5391 228.016 45.1172 228.938 44.2734C229.859 43.4297 230.32 42.4375 230.32 41.2969C230.32 40.3594 230.016 39.5234 229.406 38.7891C228.797 38.0703 227.422 37.1641 225.281 36.0703C222.984 34.8828 221.422 33.7109 220.594 32.5547C219.766 31.3984 219.352 30.0781 219.352 28.5938C219.352 26.6562 220.008 25.0469 221.32 23.7656C222.648 22.4844 224.32 21.8438 226.336 21.8438C228.68 21.8438 231.039 22.9922 233.414 25.2891ZM242.508 41.6719L245.672 43.1719L240.914 52.0312L238.594 51.0469L242.508 41.6719ZM280.5 13.5234L296.578 48H292.875L287.461 36.6562H272.602L267.211 48H263.367L279.656 13.5234H280.5ZM280.078 20.8359L274.148 33.3281H285.938L280.078 20.8359ZM326.156 27.7969L323.555 29.4141C321.305 26.4297 318.234 24.9375 314.344 24.9375C311.234 24.9375 308.648 25.9375 306.586 27.9375C304.539 29.9375 303.516 32.3672 303.516 35.2266C303.516 37.0859 303.984 38.8359 304.922 40.4766C305.875 42.1172 307.172 43.3906 308.812 44.2969C310.469 45.2031 312.32 45.6562 314.367 45.6562C318.117 45.6562 321.18 44.1641 323.555 41.1797L326.156 42.8906C324.938 44.7188 323.297 46.1406 321.234 47.1562C319.188 48.1562 316.852 48.6562 314.227 48.6562C310.195 48.6562 306.852 47.375 304.195 44.8125C301.539 42.25 300.211 39.1328 300.211 35.4609C300.211 32.9922 300.828 30.7031 302.062 28.5938C303.312 26.4688 305.023 24.8125 307.195 23.625C309.367 22.4375 311.797 21.8438 314.484 21.8438C316.172 21.8438 317.797 22.1016 319.359 22.6172C320.938 23.1328 322.273 23.8047 323.367 24.6328C324.461 25.4609 325.391 26.5156 326.156 27.7969ZM357.234 27.7969L354.633 29.4141C352.383 26.4297 349.312 24.9375 345.422 24.9375C342.312 24.9375 339.727 25.9375 337.664 27.9375C335.617 29.9375 334.594 32.3672 334.594 35.2266C334.594 37.0859 335.062 38.8359 336 40.4766C336.953 42.1172 338.25 43.3906 339.891 44.2969C341.547 45.2031 343.398 45.6562 345.445 45.6562C349.195 45.6562 352.258 44.1641 354.633 41.1797L357.234 42.8906C356.016 44.7188 354.375 46.1406 352.312 47.1562C350.266 48.1562 347.93 48.6562 345.305 48.6562C341.273 48.6562 337.93 47.375 335.273 44.8125C332.617 42.25 331.289 39.1328 331.289 35.4609C331.289 32.9922 331.906 30.7031 333.141 28.5938C334.391 26.4688 336.102 24.8125 338.273 23.625C340.445 22.4375 342.875 21.8438 345.562 21.8438C347.25 21.8438 348.875 22.1016 350.438 22.6172C352.016 23.1328 353.352 23.8047 354.445 24.6328C355.539 25.4609 356.469 26.5156 357.234 27.7969ZM385.031 39.5391L387.797 40.9922C386.891 42.7734 385.844 44.2109 384.656 45.3047C383.469 46.3984 382.133 47.2344 380.648 47.8125C379.164 48.375 377.484 48.6562 375.609 48.6562C371.453 48.6562 368.203 47.2969 365.859 44.5781C363.516 41.8438 362.344 38.7578 362.344 35.3203C362.344 32.0859 363.336 29.2031 365.32 26.6719C367.836 23.4531 371.203 21.8438 375.422 21.8438C379.766 21.8438 383.234 23.4922 385.828 26.7891C387.672 29.1172 388.609 32.0234 388.641 35.5078H365.719C365.781 38.4766 366.727 40.9141 368.555 42.8203C370.383 44.7109 372.641 45.6562 375.328 45.6562C376.625 45.6562 377.883 45.4297 379.102 44.9766C380.336 44.5234 381.383 43.9219 382.242 43.1719C383.102 42.4219 384.031 41.2109 385.031 39.5391ZM385.031 32.6719C384.594 30.9219 383.953 29.5234 383.109 28.4766C382.281 27.4297 381.18 26.5859 379.805 25.9453C378.43 25.3047 376.984 24.9844 375.469 24.9844C372.969 24.9844 370.82 25.7891 369.023 27.3984C367.711 28.5703 366.719 30.3281 366.047 32.6719H385.031ZM394.289 12.6562H397.57V48H394.289V12.6562ZM425.859 39.5391L428.625 40.9922C427.719 42.7734 426.672 44.2109 425.484 45.3047C424.297 46.3984 422.961 47.2344 421.477 47.8125C419.992 48.375 418.312 48.6562 416.438 48.6562C412.281 48.6562 409.031 47.2969 406.688 44.5781C404.344 41.8438 403.172 38.7578 403.172 35.3203C403.172 32.0859 404.164 29.2031 406.148 26.6719C408.664 23.4531 412.031 21.8438 416.25 21.8438C420.594 21.8438 424.062 23.4922 426.656 26.7891C428.5 29.1172 429.438 32.0234 429.469 35.5078H406.547C406.609 38.4766 407.555 40.9141 409.383 42.8203C411.211 44.7109 413.469 45.6562 416.156 45.6562C417.453 45.6562 418.711 45.4297 419.93 44.9766C421.164 44.5234 422.211 43.9219 423.07 43.1719C423.93 42.4219 424.859 41.2109 425.859 39.5391ZM425.859 32.6719C425.422 30.9219 424.781 29.5234 423.938 28.4766C423.109 27.4297 422.008 26.5859 420.633 25.9453C419.258 25.3047 417.812 24.9844 416.297 24.9844C413.797 24.9844 411.648 25.7891 409.852 27.3984C408.539 28.5703 407.547 30.3281 406.875 32.6719H425.859ZM434.367 22.5H437.719V26.2266C438.719 24.7578 439.773 23.6641 440.883 22.9453C441.992 22.2109 443.148 21.8438 444.352 21.8438C445.258 21.8438 446.227 22.1328 447.258 22.7109L445.547 25.4766C444.859 25.1797 444.281 25.0312 443.812 25.0312C442.719 25.0312 441.664 25.4844 440.648 26.3906C439.633 27.2812 438.859 28.6719 438.328 30.5625C437.922 32.0156 437.719 34.9531 437.719 39.375V48H434.367V22.5ZM475.453 22.5V48H472.219V43.6172C470.844 45.2891 469.297 46.5469 467.578 47.3906C465.875 48.2344 464.008 48.6562 461.977 48.6562C458.367 48.6562 455.281 47.3516 452.719 44.7422C450.172 42.1172 448.898 38.9297 448.898 35.1797C448.898 31.5078 450.188 28.3672 452.766 25.7578C455.344 23.1484 458.445 21.8438 462.07 21.8438C464.164 21.8438 466.055 22.2891 467.742 23.1797C469.445 24.0703 470.938 25.4062 472.219 27.1875V22.5H475.453ZM462.328 25.0078C460.5 25.0078 458.812 25.4609 457.266 26.3672C455.719 27.2578 454.484 28.5156 453.562 30.1406C452.656 31.7656 452.203 33.4844 452.203 35.2969C452.203 37.0938 452.664 38.8125 453.586 40.4531C454.508 42.0938 455.742 43.375 457.289 44.2969C458.852 45.2031 460.523 45.6562 462.305 45.6562C464.102 45.6562 465.805 45.2031 467.414 44.2969C469.023 43.3906 470.258 42.1641 471.117 40.6172C471.992 39.0703 472.43 37.3281 472.43 35.3906C472.43 32.4375 471.453 29.9688 469.5 27.9844C467.562 26 465.172 25.0078 462.328 25.0078ZM485.719 13.0312H489.023V22.5H494.227V25.3125H489.023V48H485.719V25.3125H481.242V22.5H485.719V13.0312ZM520.594 39.5391L523.359 40.9922C522.453 42.7734 521.406 44.2109 520.219 45.3047C519.031 46.3984 517.695 47.2344 516.211 47.8125C514.727 48.375 513.047 48.6562 511.172 48.6562C507.016 48.6562 503.766 47.2969 501.422 44.5781C499.078 41.8438 497.906 38.7578 497.906 35.3203C497.906 32.0859 498.898 29.2031 500.883 26.6719C503.398 23.4531 506.766 21.8438 510.984 21.8438C515.328 21.8438 518.797 23.4922 521.391 26.7891C523.234 29.1172 524.172 32.0234 524.203 35.5078H501.281C501.344 38.4766 502.289 40.9141 504.117 42.8203C505.945 44.7109 508.203 45.6562 510.891 45.6562C512.188 45.6562 513.445 45.4297 514.664 44.9766C515.898 44.5234 516.945 43.9219 517.805 43.1719C518.664 42.4219 519.594 41.2109 520.594 39.5391ZM520.594 32.6719C520.156 30.9219 519.516 29.5234 518.672 28.4766C517.844 27.4297 516.742 26.5859 515.367 25.9453C513.992 25.3047 512.547 24.9844 511.031 24.9844C508.531 24.9844 506.383 25.7891 504.586 27.3984C503.273 28.5703 502.281 30.3281 501.609 32.6719H520.594ZM555.797 12.6562V48H552.562V43.6172C551.188 45.2891 549.641 46.5469 547.922 47.3906C546.219 48.2344 544.352 48.6562 542.32 48.6562C538.711 48.6562 535.625 47.3516 533.062 44.7422C530.516 42.1172 529.242 38.9297 529.242 35.1797C529.242 31.5078 530.531 28.3672 533.109 25.7578C535.688 23.1484 538.789 21.8438 542.414 21.8438C544.508 21.8438 546.398 22.2891 548.086 23.1797C549.789 24.0703 551.281 25.4062 552.562 27.1875V12.6562H555.797ZM542.672 25.0078C540.844 25.0078 539.156 25.4609 537.609 26.3672C536.062 27.2578 534.828 28.5156 533.906 30.1406C533 31.7656 532.547 33.4844 532.547 35.2969C532.547 37.0938 533.008 38.8125 533.93 40.4531C534.852 42.0938 536.086 43.375 537.633 44.2969C539.195 45.2031 540.867 45.6562 542.648 45.6562C544.445 45.6562 546.148 45.2031 547.758 44.2969C549.367 43.3906 550.602 42.1641 551.461 40.6172C552.336 39.0703 552.773 37.3281 552.773 35.3906C552.773 32.4375 551.797 29.9688 549.844 27.9844C547.906 26 545.516 25.0078 542.672 25.0078Z" fill="white"/>
<path d="M481.174 78.6655C398.39 99.1007 322.565 78.2915 295 65.3325C333.3 119.86 446.301 112.236 483.625 87.1565C484.341 96.349 474.862 111.334 472.118 114.761C504.883 97.2915 513.091 76.6305 518.002 64.9668C508.041 62.8686 469.781 63.9116 454.574 67.3708C465.879 66.0256 480.096 73.5964 481.174 78.6655Z" fill="#0091EE"/>
</svg>
