<svg width="598" height="300" viewBox="0 0 598 300" fill="none" xmlns="http://www.w3.org/2000/svg">
<path d="M77.5 61V129H68.875V117.312C65.2083 121.771 61.0833 125.125 56.5 127.375C51.9583 129.625 46.9792 130.75 41.5625 130.75C31.9375 130.75 23.7083 127.271 16.875 120.312C10.0833 113.312 6.6875 104.812 6.6875 94.8125C6.6875 85.0208 10.125 76.6458 17 69.6875C23.875 62.7292 32.1458 59.25 41.8125 59.25C47.3958 59.25 52.4375 60.4375 56.9375 62.8125C61.4792 65.1875 65.4583 68.75 68.875 73.5V61H77.5ZM42.5 67.6875C37.625 67.6875 33.125 68.8958 29 71.3125C24.875 73.6875 21.5833 77.0417 19.125 81.375C16.7083 85.7083 15.5 90.2917 15.5 95.125C15.5 99.9167 16.7292 104.5 19.1875 108.875C21.6458 113.25 24.9375 116.667 29.0625 119.125C33.2292 121.542 37.6875 122.75 42.4375 122.75C47.2292 122.75 51.7708 121.542 56.0625 119.125C60.3542 116.708 63.6458 113.438 65.9375 109.312C68.2708 105.188 69.4375 100.542 69.4375 95.375C69.4375 87.5 66.8333 80.9167 61.625 75.625C56.4583 70.3333 50.0833 67.6875 42.5 67.6875ZM163.25 75.125L156.312 79.4375C150.312 71.4792 142.125 67.5 131.75 67.5C123.458 67.5 116.562 70.1667 111.062 75.5C105.604 80.8333 102.875 87.3125 102.875 94.9375C102.875 99.8958 104.125 104.562 106.625 108.938C109.167 113.312 112.625 116.708 117 119.125C121.417 121.542 126.354 122.75 131.812 122.75C141.812 122.75 149.979 118.771 156.312 110.812L163.25 115.375C160 120.25 155.625 124.042 150.125 126.75C144.667 129.417 138.438 130.75 131.438 130.75C120.688 130.75 111.771 127.333 104.688 120.5C97.6042 113.667 94.0625 105.354 94.0625 95.5625C94.0625 88.9792 95.7083 82.875 99 77.25C102.333 71.5833 106.896 67.1667 112.688 64C118.479 60.8333 124.958 59.25 132.125 59.25C136.625 59.25 140.958 59.9375 145.125 61.3125C149.333 62.6875 152.896 64.4792 155.812 66.6875C158.729 68.8958 161.208 71.7083 163.25 75.125ZM246.125 75.125L239.188 79.4375C233.188 71.4792 225 67.5 214.625 67.5C206.333 67.5 199.438 70.1667 193.938 75.5C188.479 80.8333 185.75 87.3125 185.75 94.9375C185.75 99.8958 187 104.562 189.5 108.938C192.042 113.312 195.5 116.708 199.875 119.125C204.292 121.542 209.229 122.75 214.688 122.75C224.688 122.75 232.854 118.771 239.188 110.812L246.125 115.375C242.875 120.25 238.5 124.042 233 126.75C227.542 129.417 221.312 130.75 214.312 130.75C203.562 130.75 194.646 127.333 187.562 120.5C180.479 113.667 176.938 105.354 176.938 95.5625C176.938 88.9792 178.583 82.875 181.875 77.25C185.208 71.5833 189.771 67.1667 195.562 64C201.354 60.8333 207.833 59.25 215 59.25C219.5 59.25 223.833 59.9375 228 61.3125C232.208 62.6875 235.771 64.4792 238.688 66.6875C241.604 68.8958 244.083 71.7083 246.125 75.125ZM320.25 106.438L327.625 110.312C325.208 115.062 322.417 118.896 319.25 121.812C316.083 124.729 312.521 126.958 308.562 128.5C304.604 130 300.125 130.75 295.125 130.75C284.042 130.75 275.375 127.125 269.125 119.875C262.875 112.583 259.75 104.354 259.75 95.1875C259.75 86.5625 262.396 78.875 267.688 72.125C274.396 63.5417 283.375 59.25 294.625 59.25C306.208 59.25 315.458 63.6458 322.375 72.4375C327.292 78.6458 329.792 86.3958 329.875 95.6875H268.75C268.917 103.604 271.438 110.104 276.312 115.188C281.188 120.229 287.208 122.75 294.375 122.75C297.833 122.75 301.188 122.146 304.438 120.938C307.729 119.729 310.521 118.125 312.812 116.125C315.104 114.125 317.583 110.896 320.25 106.438ZM320.25 88.125C319.083 83.4583 317.375 79.7292 315.125 76.9375C312.917 74.1458 309.979 71.8958 306.312 70.1875C302.646 68.4792 298.792 67.625 294.75 67.625C288.083 67.625 282.354 69.7708 277.562 74.0625C274.062 77.1875 271.417 81.875 269.625 88.125H320.25ZM344.938 34.75H353.688V129H344.938V34.75ZM404.062 59.25C414.521 59.25 423.188 63.0417 430.062 70.625C436.312 77.5417 439.438 85.7292 439.438 95.1875C439.438 104.688 436.125 113 429.5 120.125C422.917 127.208 414.438 130.75 404.062 130.75C393.646 130.75 385.125 127.208 378.5 120.125C371.917 113 368.625 104.688 368.625 95.1875C368.625 85.7708 371.75 77.6042 378 70.6875C384.875 63.0625 393.562 59.25 404.062 59.25ZM404.062 67.8125C396.812 67.8125 390.583 70.5 385.375 75.875C380.167 81.25 377.562 87.75 377.562 95.375C377.562 100.292 378.75 104.875 381.125 109.125C383.5 113.375 386.708 116.667 390.75 119C394.792 121.292 399.229 122.438 404.062 122.438C408.896 122.438 413.333 121.292 417.375 119C421.417 116.667 424.625 113.375 427 109.125C429.375 104.875 430.562 100.292 430.562 95.375C430.562 87.75 427.938 81.25 422.688 75.875C417.479 70.5 411.271 67.8125 404.062 67.8125ZM455.688 34.75H464.5V88.375L495.938 61H508.812L471.5 93.4375L511 129H498.625L464.5 98.4375V129H455.688V34.75ZM587.75 61V129H579.125V117.312C575.458 121.771 571.333 125.125 566.75 127.375C562.208 129.625 557.229 130.75 551.812 130.75C542.188 130.75 533.958 127.271 527.125 120.312C520.333 113.312 516.938 104.812 516.938 94.8125C516.938 85.0208 520.375 76.6458 527.25 69.6875C534.125 62.7292 542.396 59.25 552.062 59.25C557.646 59.25 562.688 60.4375 567.188 62.8125C571.729 65.1875 575.708 68.75 579.125 73.5V61H587.75ZM552.75 67.6875C547.875 67.6875 543.375 68.8958 539.25 71.3125C535.125 73.6875 531.833 77.0417 529.375 81.375C526.958 85.7083 525.75 90.2917 525.75 95.125C525.75 99.9167 526.979 104.5 529.438 108.875C531.896 113.25 535.188 116.667 539.312 119.125C543.479 121.542 547.938 122.75 552.688 122.75C557.479 122.75 562.021 121.542 566.312 119.125C570.604 116.708 573.896 113.438 576.188 109.312C578.521 105.188 579.688 100.542 579.688 95.375C579.688 87.5 577.083 80.9167 571.875 75.625C566.708 70.3333 560.333 67.6875 552.75 67.6875Z" fill="#0091EE"/>
<path d="M20.4766 170.523H24.4609L33.2734 184.727L41.9453 170.523H45.9297L35.0078 188.523V205H31.6094V188.523L20.4766 170.523ZM63.1328 178.844C67.0547 178.844 70.3047 180.266 72.8828 183.109C75.2266 185.703 76.3984 188.773 76.3984 192.32C76.3984 195.883 75.1562 199 72.6719 201.672C70.2031 204.328 67.0234 205.656 63.1328 205.656C59.2266 205.656 56.0312 204.328 53.5469 201.672C51.0781 199 49.8438 195.883 49.8438 192.32C49.8438 188.789 51.0156 185.727 53.3594 183.133C55.9375 180.273 59.1953 178.844 63.1328 178.844ZM63.1328 182.055C60.4141 182.055 58.0781 183.062 56.125 185.078C54.1719 187.094 53.1953 189.531 53.1953 192.391C53.1953 194.234 53.6406 195.953 54.5312 197.547C55.4219 199.141 56.625 200.375 58.1406 201.25C59.6562 202.109 61.3203 202.539 63.1328 202.539C64.9453 202.539 66.6094 202.109 68.125 201.25C69.6406 200.375 70.8438 199.141 71.7344 197.547C72.625 195.953 73.0703 194.234 73.0703 192.391C73.0703 189.531 72.0859 187.094 70.1172 185.078C68.1641 183.062 65.8359 182.055 63.1328 182.055ZM82.0938 179.5H85.3984V191.406C85.3984 194.312 85.5547 196.312 85.8672 197.406C86.3359 198.969 87.2266 200.203 88.5391 201.109C89.8672 202.016 91.4453 202.469 93.2734 202.469C95.1016 202.469 96.6484 202.031 97.9141 201.156C99.1953 200.266 100.078 199.102 100.562 197.664C100.891 196.68 101.055 194.594 101.055 191.406V179.5H104.406V192.016C104.406 195.531 103.992 198.18 103.164 199.961C102.352 201.742 101.117 203.141 99.4609 204.156C97.8203 205.156 95.7578 205.656 93.2734 205.656C90.7891 205.656 88.7109 205.156 87.0391 204.156C85.3828 203.141 84.1406 201.734 83.3125 199.938C82.5 198.125 82.0938 195.406 82.0938 191.781V179.5ZM110.477 179.5H113.828V183.227C114.828 181.758 115.883 180.664 116.992 179.945C118.102 179.211 119.258 178.844 120.461 178.844C121.367 178.844 122.336 179.133 123.367 179.711L121.656 182.477C120.969 182.18 120.391 182.031 119.922 182.031C118.828 182.031 117.773 182.484 116.758 183.391C115.742 184.281 114.969 185.672 114.438 187.562C114.031 189.016 113.828 191.953 113.828 196.375V205H110.477V179.5ZM139.984 170.523H146.852C150.789 170.523 153.445 170.695 154.82 171.039C156.789 171.523 158.398 172.523 159.648 174.039C160.898 175.539 161.523 177.43 161.523 179.711C161.523 182.008 160.914 183.906 159.695 185.406C158.477 186.891 156.797 187.891 154.656 188.406C153.094 188.781 150.172 188.969 145.891 188.969H143.43V205H139.984V170.523ZM143.43 173.875V185.594L149.266 185.664C151.625 185.664 153.352 185.453 154.445 185.031C155.539 184.594 156.398 183.898 157.023 182.945C157.648 181.977 157.961 180.898 157.961 179.711C157.961 178.555 157.648 177.5 157.023 176.547C156.398 175.578 155.57 174.891 154.539 174.484C153.523 174.078 151.852 173.875 149.523 173.875H143.43ZM167.383 169.656H170.664V205H167.383V169.656ZM202.891 179.5V205H199.656V200.617C198.281 202.289 196.734 203.547 195.016 204.391C193.312 205.234 191.445 205.656 189.414 205.656C185.805 205.656 182.719 204.352 180.156 201.742C177.609 199.117 176.336 195.93 176.336 192.18C176.336 188.508 177.625 185.367 180.203 182.758C182.781 180.148 185.883 178.844 189.508 178.844C191.602 178.844 193.492 179.289 195.18 180.18C196.883 181.07 198.375 182.406 199.656 184.188V179.5H202.891ZM189.766 182.008C187.938 182.008 186.25 182.461 184.703 183.367C183.156 184.258 181.922 185.516 181 187.141C180.094 188.766 179.641 190.484 179.641 192.297C179.641 194.094 180.102 195.812 181.023 197.453C181.945 199.094 183.18 200.375 184.727 201.297C186.289 202.203 187.961 202.656 189.742 202.656C191.539 202.656 193.242 202.203 194.852 201.297C196.461 200.391 197.695 199.164 198.555 197.617C199.43 196.07 199.867 194.328 199.867 192.391C199.867 189.438 198.891 186.969 196.938 184.984C195 183 192.609 182.008 189.766 182.008ZM210.297 179.5H213.578V184.07C214.891 182.32 216.344 181.016 217.938 180.156C219.531 179.281 221.266 178.844 223.141 178.844C225.047 178.844 226.734 179.328 228.203 180.297C229.688 181.266 230.781 182.57 231.484 184.211C232.188 185.852 232.539 188.406 232.539 191.875V205H229.281V192.836C229.281 189.898 229.156 187.938 228.906 186.953C228.516 185.266 227.781 184 226.703 183.156C225.625 182.297 224.219 181.867 222.484 181.867C220.5 181.867 218.719 182.523 217.141 183.836C215.578 185.148 214.547 186.773 214.047 188.711C213.734 189.977 213.578 192.289 213.578 195.648V205H210.297V179.5ZM252.414 182.289L250.305 184.469C248.555 182.766 246.844 181.914 245.172 181.914C244.109 181.914 243.195 182.266 242.43 182.969C241.68 183.672 241.305 184.492 241.305 185.43C241.305 186.258 241.617 187.047 242.242 187.797C242.867 188.562 244.18 189.461 246.18 190.492C248.617 191.758 250.273 192.977 251.148 194.148C252.008 195.336 252.438 196.672 252.438 198.156C252.438 200.25 251.703 202.023 250.234 203.477C248.766 204.93 246.93 205.656 244.727 205.656C243.258 205.656 241.852 205.336 240.508 204.695C239.18 204.055 238.078 203.172 237.203 202.047L239.266 199.703C240.938 201.594 242.711 202.539 244.586 202.539C245.898 202.539 247.016 202.117 247.938 201.273C248.859 200.43 249.32 199.438 249.32 198.297C249.32 197.359 249.016 196.523 248.406 195.789C247.797 195.07 246.422 194.164 244.281 193.07C241.984 191.883 240.422 190.711 239.594 189.555C238.766 188.398 238.352 187.078 238.352 185.594C238.352 183.656 239.008 182.047 240.32 180.766C241.648 179.484 243.32 178.844 245.336 178.844C247.68 178.844 250.039 179.992 252.414 182.289ZM261.508 198.672L264.672 200.172L259.914 209.031L257.594 208.047L261.508 198.672ZM299.5 170.523L315.578 205H311.875L306.461 193.656H291.602L286.211 205H282.367L298.656 170.523H299.5ZM299.078 177.836L293.148 190.328H304.938L299.078 177.836ZM345.156 184.797L342.555 186.414C340.305 183.43 337.234 181.938 333.344 181.938C330.234 181.938 327.648 182.938 325.586 184.938C323.539 186.938 322.516 189.367 322.516 192.227C322.516 194.086 322.984 195.836 323.922 197.477C324.875 199.117 326.172 200.391 327.812 201.297C329.469 202.203 331.32 202.656 333.367 202.656C337.117 202.656 340.18 201.164 342.555 198.18L345.156 199.891C343.938 201.719 342.297 203.141 340.234 204.156C338.188 205.156 335.852 205.656 333.227 205.656C329.195 205.656 325.852 204.375 323.195 201.812C320.539 199.25 319.211 196.133 319.211 192.461C319.211 189.992 319.828 187.703 321.062 185.594C322.312 183.469 324.023 181.812 326.195 180.625C328.367 179.438 330.797 178.844 333.484 178.844C335.172 178.844 336.797 179.102 338.359 179.617C339.938 180.133 341.273 180.805 342.367 181.633C343.461 182.461 344.391 183.516 345.156 184.797ZM376.234 184.797L373.633 186.414C371.383 183.43 368.312 181.938 364.422 181.938C361.312 181.938 358.727 182.938 356.664 184.938C354.617 186.938 353.594 189.367 353.594 192.227C353.594 194.086 354.062 195.836 355 197.477C355.953 199.117 357.25 200.391 358.891 201.297C360.547 202.203 362.398 202.656 364.445 202.656C368.195 202.656 371.258 201.164 373.633 198.18L376.234 199.891C375.016 201.719 373.375 203.141 371.312 204.156C369.266 205.156 366.93 205.656 364.305 205.656C360.273 205.656 356.93 204.375 354.273 201.812C351.617 199.25 350.289 196.133 350.289 192.461C350.289 189.992 350.906 187.703 352.141 185.594C353.391 183.469 355.102 181.812 357.273 180.625C359.445 179.438 361.875 178.844 364.562 178.844C366.25 178.844 367.875 179.102 369.438 179.617C371.016 180.133 372.352 180.805 373.445 181.633C374.539 182.461 375.469 183.516 376.234 184.797ZM404.031 196.539L406.797 197.992C405.891 199.773 404.844 201.211 403.656 202.305C402.469 203.398 401.133 204.234 399.648 204.812C398.164 205.375 396.484 205.656 394.609 205.656C390.453 205.656 387.203 204.297 384.859 201.578C382.516 198.844 381.344 195.758 381.344 192.32C381.344 189.086 382.336 186.203 384.32 183.672C386.836 180.453 390.203 178.844 394.422 178.844C398.766 178.844 402.234 180.492 404.828 183.789C406.672 186.117 407.609 189.023 407.641 192.508H384.719C384.781 195.477 385.727 197.914 387.555 199.82C389.383 201.711 391.641 202.656 394.328 202.656C395.625 202.656 396.883 202.43 398.102 201.977C399.336 201.523 400.383 200.922 401.242 200.172C402.102 199.422 403.031 198.211 404.031 196.539ZM404.031 189.672C403.594 187.922 402.953 186.523 402.109 185.477C401.281 184.43 400.18 183.586 398.805 182.945C397.43 182.305 395.984 181.984 394.469 181.984C391.969 181.984 389.82 182.789 388.023 184.398C386.711 185.57 385.719 187.328 385.047 189.672H404.031ZM413.289 169.656H416.57V205H413.289V169.656ZM444.859 196.539L447.625 197.992C446.719 199.773 445.672 201.211 444.484 202.305C443.297 203.398 441.961 204.234 440.477 204.812C438.992 205.375 437.312 205.656 435.438 205.656C431.281 205.656 428.031 204.297 425.688 201.578C423.344 198.844 422.172 195.758 422.172 192.32C422.172 189.086 423.164 186.203 425.148 183.672C427.664 180.453 431.031 178.844 435.25 178.844C439.594 178.844 443.062 180.492 445.656 183.789C447.5 186.117 448.438 189.023 448.469 192.508H425.547C425.609 195.477 426.555 197.914 428.383 199.82C430.211 201.711 432.469 202.656 435.156 202.656C436.453 202.656 437.711 202.43 438.93 201.977C440.164 201.523 441.211 200.922 442.07 200.172C442.93 199.422 443.859 198.211 444.859 196.539ZM444.859 189.672C444.422 187.922 443.781 186.523 442.938 185.477C442.109 184.43 441.008 183.586 439.633 182.945C438.258 182.305 436.812 181.984 435.297 181.984C432.797 181.984 430.648 182.789 428.852 184.398C427.539 185.57 426.547 187.328 425.875 189.672H444.859ZM453.367 179.5H456.719V183.227C457.719 181.758 458.773 180.664 459.883 179.945C460.992 179.211 462.148 178.844 463.352 178.844C464.258 178.844 465.227 179.133 466.258 179.711L464.547 182.477C463.859 182.18 463.281 182.031 462.812 182.031C461.719 182.031 460.664 182.484 459.648 183.391C458.633 184.281 457.859 185.672 457.328 187.562C456.922 189.016 456.719 191.953 456.719 196.375V205H453.367V179.5ZM494.453 179.5V205H491.219V200.617C489.844 202.289 488.297 203.547 486.578 204.391C484.875 205.234 483.008 205.656 480.977 205.656C477.367 205.656 474.281 204.352 471.719 201.742C469.172 199.117 467.898 195.93 467.898 192.18C467.898 188.508 469.188 185.367 471.766 182.758C474.344 180.148 477.445 178.844 481.07 178.844C483.164 178.844 485.055 179.289 486.742 180.18C488.445 181.07 489.938 182.406 491.219 184.188V179.5H494.453ZM481.328 182.008C479.5 182.008 477.812 182.461 476.266 183.367C474.719 184.258 473.484 185.516 472.562 187.141C471.656 188.766 471.203 190.484 471.203 192.297C471.203 194.094 471.664 195.812 472.586 197.453C473.508 199.094 474.742 200.375 476.289 201.297C477.852 202.203 479.523 202.656 481.305 202.656C483.102 202.656 484.805 202.203 486.414 201.297C488.023 200.391 489.258 199.164 490.117 197.617C490.992 196.07 491.43 194.328 491.43 192.391C491.43 189.438 490.453 186.969 488.5 184.984C486.562 183 484.172 182.008 481.328 182.008ZM504.719 170.031H508.023V179.5H513.227V182.312H508.023V205H504.719V182.312H500.242V179.5H504.719V170.031ZM539.594 196.539L542.359 197.992C541.453 199.773 540.406 201.211 539.219 202.305C538.031 203.398 536.695 204.234 535.211 204.812C533.727 205.375 532.047 205.656 530.172 205.656C526.016 205.656 522.766 204.297 520.422 201.578C518.078 198.844 516.906 195.758 516.906 192.32C516.906 189.086 517.898 186.203 519.883 183.672C522.398 180.453 525.766 178.844 529.984 178.844C534.328 178.844 537.797 180.492 540.391 183.789C542.234 186.117 543.172 189.023 543.203 192.508H520.281C520.344 195.477 521.289 197.914 523.117 199.82C524.945 201.711 527.203 202.656 529.891 202.656C531.188 202.656 532.445 202.43 533.664 201.977C534.898 201.523 535.945 200.922 536.805 200.172C537.664 199.422 538.594 198.211 539.594 196.539ZM539.594 189.672C539.156 187.922 538.516 186.523 537.672 185.477C536.844 184.43 535.742 183.586 534.367 182.945C532.992 182.305 531.547 181.984 530.031 181.984C527.531 181.984 525.383 182.789 523.586 184.398C522.273 185.57 521.281 187.328 520.609 189.672H539.594ZM574.797 169.656V205H571.562V200.617C570.188 202.289 568.641 203.547 566.922 204.391C565.219 205.234 563.352 205.656 561.32 205.656C557.711 205.656 554.625 204.352 552.062 201.742C549.516 199.117 548.242 195.93 548.242 192.18C548.242 188.508 549.531 185.367 552.109 182.758C554.688 180.148 557.789 178.844 561.414 178.844C563.508 178.844 565.398 179.289 567.086 180.18C568.789 181.07 570.281 182.406 571.562 184.188V169.656H574.797ZM561.672 182.008C559.844 182.008 558.156 182.461 556.609 183.367C555.062 184.258 553.828 185.516 552.906 187.141C552 188.766 551.547 190.484 551.547 192.297C551.547 194.094 552.008 195.812 552.93 197.453C553.852 199.094 555.086 200.375 556.633 201.297C558.195 202.203 559.867 202.656 561.648 202.656C563.445 202.656 565.148 202.203 566.758 201.297C568.367 200.391 569.602 199.164 570.461 197.617C571.336 196.07 571.773 194.328 571.773 192.391C571.773 189.438 570.797 186.969 568.844 184.984C566.906 183 564.516 182.008 561.672 182.008Z" fill="white"/>
<path d="M500.174 235.666C417.39 256.101 341.565 235.291 314 222.332C352.3 276.86 465.301 269.236 502.625 244.157C503.341 253.349 493.862 268.334 491.118 271.761C523.883 254.291 532.091 233.631 537.002 221.967C527.041 219.869 488.781 220.912 473.574 224.371C484.879 223.026 499.096 230.596 500.174 235.666Z" fill="#0091EE"/>
</svg>
