<svg width="598" height="157" viewBox="0 0 598 157" fill="none" xmlns="http://www.w3.org/2000/svg">
<path d="M77.5 61V129H68.875V117.312C65.2083 121.771 61.0833 125.125 56.5 127.375C51.9583 129.625 46.9792 130.75 41.5625 130.75C31.9375 130.75 23.7083 127.271 16.875 120.312C10.0833 113.312 6.6875 104.812 6.6875 94.8125C6.6875 85.0208 10.125 76.6458 17 69.6875C23.875 62.7292 32.1458 59.25 41.8125 59.25C47.3958 59.25 52.4375 60.4375 56.9375 62.8125C61.4792 65.1875 65.4583 68.75 68.875 73.5V61H77.5ZM42.5 67.6875C37.625 67.6875 33.125 68.8958 29 71.3125C24.875 73.6875 21.5833 77.0417 19.125 81.375C16.7083 85.7083 15.5 90.2917 15.5 95.125C15.5 99.9167 16.7292 104.5 19.1875 108.875C21.6458 113.25 24.9375 116.667 29.0625 119.125C33.2292 121.542 37.6875 122.75 42.4375 122.75C47.2292 122.75 51.7708 121.542 56.0625 119.125C60.3542 116.708 63.6458 113.438 65.9375 109.312C68.2708 105.188 69.4375 100.542 69.4375 95.375C69.4375 87.5 66.8333 80.9167 61.625 75.625C56.4583 70.3333 50.0833 67.6875 42.5 67.6875ZM163.25 75.125L156.312 79.4375C150.312 71.4792 142.125 67.5 131.75 67.5C123.458 67.5 116.562 70.1667 111.062 75.5C105.604 80.8333 102.875 87.3125 102.875 94.9375C102.875 99.8958 104.125 104.562 106.625 108.938C109.167 113.312 112.625 116.708 117 119.125C121.417 121.542 126.354 122.75 131.812 122.75C141.812 122.75 149.979 118.771 156.312 110.812L163.25 115.375C160 120.25 155.625 124.042 150.125 126.75C144.667 129.417 138.438 130.75 131.438 130.75C120.688 130.75 111.771 127.333 104.688 120.5C97.6042 113.667 94.0625 105.354 94.0625 95.5625C94.0625 88.9792 95.7083 82.875 99 77.25C102.333 71.5833 106.896 67.1667 112.688 64C118.479 60.8333 124.958 59.25 132.125 59.25C136.625 59.25 140.958 59.9375 145.125 61.3125C149.333 62.6875 152.896 64.4792 155.812 66.6875C158.729 68.8958 161.208 71.7083 163.25 75.125ZM246.125 75.125L239.188 79.4375C233.188 71.4792 225 67.5 214.625 67.5C206.333 67.5 199.438 70.1667 193.938 75.5C188.479 80.8333 185.75 87.3125 185.75 94.9375C185.75 99.8958 187 104.562 189.5 108.938C192.042 113.312 195.5 116.708 199.875 119.125C204.292 121.542 209.229 122.75 214.688 122.75C224.688 122.75 232.854 118.771 239.188 110.812L246.125 115.375C242.875 120.25 238.5 124.042 233 126.75C227.542 129.417 221.312 130.75 214.312 130.75C203.562 130.75 194.646 127.333 187.562 120.5C180.479 113.667 176.938 105.354 176.938 95.5625C176.938 88.9792 178.583 82.875 181.875 77.25C185.208 71.5833 189.771 67.1667 195.562 64C201.354 60.8333 207.833 59.25 215 59.25C219.5 59.25 223.833 59.9375 228 61.3125C232.208 62.6875 235.771 64.4792 238.688 66.6875C241.604 68.8958 244.083 71.7083 246.125 75.125ZM320.25 106.438L327.625 110.312C325.208 115.062 322.417 118.896 319.25 121.812C316.083 124.729 312.521 126.958 308.562 128.5C304.604 130 300.125 130.75 295.125 130.75C284.042 130.75 275.375 127.125 269.125 119.875C262.875 112.583 259.75 104.354 259.75 95.1875C259.75 86.5625 262.396 78.875 267.688 72.125C274.396 63.5417 283.375 59.25 294.625 59.25C306.208 59.25 315.458 63.6458 322.375 72.4375C327.292 78.6458 329.792 86.3958 329.875 95.6875H268.75C268.917 103.604 271.438 110.104 276.312 115.188C281.188 120.229 287.208 122.75 294.375 122.75C297.833 122.75 301.188 122.146 304.438 120.938C307.729 119.729 310.521 118.125 312.812 116.125C315.104 114.125 317.583 110.896 320.25 106.438ZM320.25 88.125C319.083 83.4583 317.375 79.7292 315.125 76.9375C312.917 74.1458 309.979 71.8958 306.312 70.1875C302.646 68.4792 298.792 67.625 294.75 67.625C288.083 67.625 282.354 69.7708 277.562 74.0625C274.062 77.1875 271.417 81.875 269.625 88.125H320.25ZM344.938 34.75H353.688V129H344.938V34.75ZM404.062 59.25C414.521 59.25 423.188 63.0417 430.062 70.625C436.312 77.5417 439.438 85.7292 439.438 95.1875C439.438 104.688 436.125 113 429.5 120.125C422.917 127.208 414.438 130.75 404.062 130.75C393.646 130.75 385.125 127.208 378.5 120.125C371.917 113 368.625 104.688 368.625 95.1875C368.625 85.7708 371.75 77.6042 378 70.6875C384.875 63.0625 393.562 59.25 404.062 59.25ZM404.062 67.8125C396.812 67.8125 390.583 70.5 385.375 75.875C380.167 81.25 377.562 87.75 377.562 95.375C377.562 100.292 378.75 104.875 381.125 109.125C383.5 113.375 386.708 116.667 390.75 119C394.792 121.292 399.229 122.438 404.062 122.438C408.896 122.438 413.333 121.292 417.375 119C421.417 116.667 424.625 113.375 427 109.125C429.375 104.875 430.562 100.292 430.562 95.375C430.562 87.75 427.938 81.25 422.688 75.875C417.479 70.5 411.271 67.8125 404.062 67.8125ZM455.688 34.75H464.5V88.375L495.938 61H508.812L471.5 93.4375L511 129H498.625L464.5 98.4375V129H455.688V34.75ZM587.75 61V129H579.125V117.312C575.458 121.771 571.333 125.125 566.75 127.375C562.208 129.625 557.229 130.75 551.812 130.75C542.188 130.75 533.958 127.271 527.125 120.312C520.333 113.312 516.938 104.812 516.938 94.8125C516.938 85.0208 520.375 76.6458 527.25 69.6875C534.125 62.7292 542.396 59.25 552.062 59.25C557.646 59.25 562.688 60.4375 567.188 62.8125C571.729 65.1875 575.708 68.75 579.125 73.5V61H587.75ZM552.75 67.6875C547.875 67.6875 543.375 68.8958 539.25 71.3125C535.125 73.6875 531.833 77.0417 529.375 81.375C526.958 85.7083 525.75 90.2917 525.75 95.125C525.75 99.9167 526.979 104.5 529.438 108.875C531.896 113.25 535.188 116.667 539.312 119.125C543.479 121.542 547.938 122.75 552.688 122.75C557.479 122.75 562.021 121.542 566.312 119.125C570.604 116.708 573.896 113.438 576.188 109.312C578.521 105.188 579.688 100.542 579.688 95.375C579.688 87.5 577.083 80.9167 571.875 75.625C566.708 70.3333 560.333 67.6875 552.75 67.6875Z" fill="#0091EE"/>
</svg>
